<svg xmlns="http://www.w3.org/2000/svg" width="800" height="600"><path fill="#D3D3D3" d="M162.829 124.429c-.097.409-.444.801-1.044 1.168l-12.512 7.511-.903 14.57c-.015.134-.051.325-.109.57-.22.931-.711 1.306-1.478 1.125-.355-.084-.702-.278-1.04-.599l-11.011-9.584-14.138 3.633c-.463.132-.863.149-1.198.07-.392-.093-.655-.293-.787-.609-.13-.324-.151-.674-.058-1.066.027-.115.088-.299.19-.55l5.718-13.431-7.847-12.328c-.348-.608-.474-1.112-.381-1.505.164-.694.788-.995 1.874-.919l14.541 1.284 9.317-11.251c.537-.684 1.085-.959 1.645-.827s.926.625 1.1 1.476l3.287 14.233 13.574 5.368c1.002.418 1.424.967 1.26 1.661zm-17.121 6.506l10.538-6.296-11.41-4.528-2.761-11.953-7.825 9.448-12.229-1.065 6.603 10.352-4.835 11.303 11.904-3.066 9.239 8.069.776-12.264zm363.353 236.582c.292.532.298 1.29.009 2.264l-6.172 20.177 13.131 16.526c.114.158.26.398.434.717.664 1.213.501 2.091-.5 2.639-.463.253-1.023.38-1.697.362l-21.104.362-11.672 17.585c-.37.589-.783.996-1.22 1.235-.511.28-.987.32-1.435.108-.454-.222-.814-.578-1.094-1.088-.082-.149-.195-.406-.328-.775l-6.856-19.962-20.361-5.649c-.962-.317-1.586-.736-1.866-1.247-.495-.905-.117-1.832 1.123-2.801l16.863-12.693-.88-21.102c-.085-1.254.237-2.081.966-2.48s1.599-.225 2.61.522l17.306 12.108 19.777-7.37c1.486-.523 2.47-.343 2.966.562zm-12.096 23.559l5.227-16.961-16.639 6.178-14.533-10.168.738 17.722-14.168 10.691 17.111 4.73 5.745 16.821 9.82-14.814 17.734-.275-11.035-13.924zm188.055-125.87c.553.054 1.13.439 1.718 1.16l12.094 15.066 19.274-1.426c.179-.005.435.008.767.041 1.261.122 1.841.698 1.74 1.738-.047.481-.239.97-.6 1.471l-10.598 16.161 7.298 17.894c.256.583.35 1.106.306 1.559-.051.531-.267.912-.658 1.142-.402.229-.857.319-1.388.267-.155-.015-.407-.062-.756-.151l-18.642-5.094-14.765 12.502c-.736.565-1.374.821-1.905.77-.94-.091-1.447-.855-1.542-2.293l-.921-19.303-16.427-10.205c-.993-.582-1.453-1.251-1.38-2.009s.653-1.327 1.74-1.707l18.08-6.862 4.61-18.767c.371-1.393 1.015-2.045 1.955-1.954zm11.602 21.292l-10.146-12.694-3.895 15.777-15.183 5.763 13.795 8.571.794 16.232 12.395-10.516 15.692 4.317-6.154-15.065 8.928-13.564-16.226 1.179zm-302.359-27.564c-.074.311-.338.61-.795.889l-9.532 5.722-.688 11.1-.083.434c-.168.709-.541.995-1.126.857-.27-.064-.535-.212-.792-.457l-8.389-7.301-10.771 2.767c-.352.1-.658.114-.913.053-.299-.071-.499-.223-.6-.464-.099-.247-.115-.513-.044-.812.021-.087.067-.227.145-.419l4.356-10.232-5.978-9.392c-.265-.463-.361-.848-.291-1.146.125-.529.6-.758 1.427-.7l11.077.978 7.097-8.571c.409-.521.827-.731 1.253-.63.426.101.706.476.838 1.125l2.504 10.843 10.341 4.09c.768.319 1.089.737.964 1.266zm-13.043 4.956l8.028-4.796-8.692-3.45-2.103-9.106-5.961 7.197-9.316-.812 5.03 7.886-3.683 8.61 9.068-2.335 7.038 6.147.591-9.341zm147.559 260.874c.157.251.181.62.067 1.103l-2.443 10 6.857 7.683.232.337c.357.572.302 1.005-.17 1.299-.218.136-.488.214-.816.224l-10.269.765-5.194 8.891c-.164.297-.354.507-.56.635-.241.151-.472.183-.696.093-.227-.095-.413-.259-.563-.5-.044-.07-.106-.192-.182-.368l-3.896-9.532-10.075-2.183c-.477-.128-.793-.314-.944-.555-.267-.427-.108-.889.469-1.396l7.859-6.653-1.018-10.254c-.076-.609.057-1.02.401-1.235.344-.215.773-.154 1.286.181l8.767 5.415 9.427-4.142c.71-.296 1.194-.235 1.461.192zm-5.234 11.812l2.073-8.407-7.932 3.474-7.363-4.547.854 8.611-6.602 5.603 8.467 1.826 3.268 8.033 4.37-7.49 8.63-.628-5.765-6.475zm-384.113 25.678c-.027.115-.125.225-.294.329l-3.522 2.114-.254 4.101-.031.16c-.062.262-.2.368-.416.317-.1-.024-.197-.078-.293-.169l-3.099-2.698-3.979 1.022c-.13.037-.243.042-.337.02-.11-.026-.184-.082-.222-.171-.037-.091-.042-.19-.016-.3l.054-.155 1.61-3.78-2.209-3.47c-.098-.171-.133-.313-.107-.424.046-.195.222-.28.527-.259l4.093.361 2.622-3.167c.151-.192.305-.27.463-.233.157.037.261.176.309.416l.925 4.006 3.821 1.511c.282.119.401.273.355.469zm-4.819 1.831l2.966-1.772-3.211-1.275-.777-3.364-2.202 2.659-3.442-.3 1.858 2.914-1.361 3.181 3.351-.863 2.6 2.271.218-3.451zm638.415-77.044c-.074.312-.339.611-.797.891l-9.55 5.733-.689 11.121-.083.435c-.168.711-.542.997-1.128.858-.271-.064-.536-.212-.793-.457l-8.405-7.315-10.792 2.773c-.353.1-.659.114-.915.053-.299-.071-.5-.224-.601-.465-.1-.247-.115-.514-.044-.813.021-.087.067-.228.145-.42l4.365-10.252-5.99-9.41c-.265-.464-.362-.849-.291-1.149.125-.53.601-.76 1.43-.702l11.099.98 7.111-8.588c.41-.522.828-.732 1.255-.631.427.101.707.477.839 1.127l2.509 10.864 10.361 4.098c.767.32 1.089.739.964 1.269zm-13.068 4.966l8.043-4.805-8.709-3.456-2.107-9.123-5.973 7.211-9.334-.813 5.04 7.901-3.69 8.627 9.086-2.34 7.052 6.159.592-9.361zm-348.699-447.423c-.075.318-.345.623-.812.908l-9.729 5.84-.702 11.33c-.011.104-.039.252-.085.443-.171.724-.553 1.016-1.15.875-.276-.065-.546-.216-.808-.466l-8.562-7.452-10.994 2.825c-.36.102-.671.116-.932.054-.305-.072-.51-.228-.612-.473-.101-.252-.117-.524-.045-.829.021-.089.068-.232.148-.428l4.447-10.444-6.102-9.586c-.27-.473-.369-.865-.297-1.17.128-.54.612-.774 1.457-.715l11.307.999 7.244-8.748c.418-.532.844-.746 1.279-.643.435.103.72.486.855 1.148l2.556 11.067 10.555 4.174c.781.325 1.11.751.982 1.291zm-13.313 5.059l8.194-4.895-8.872-3.521-2.147-9.294-6.084 7.346-9.509-.828 5.134 8.049-3.76 8.789 9.256-2.384 7.184 6.274.604-9.536zm299.67 33.562c.183.256.234.646.145 1.167l-1.927 10.787 7.799 7.704.269.343c.418.584.388 1.047-.093 1.392-.223.159-.504.26-.852.292l-10.859 1.5-4.924 9.793c-.154.327-.342.562-.552.712-.246.176-.489.226-.733.145-.248-.086-.456-.247-.632-.493-.051-.072-.126-.197-.217-.379l-4.777-9.866-10.85-1.645c-.516-.104-.864-.281-1.04-.527-.312-.436-.174-.937.405-1.514l7.905-7.594-1.767-10.826c-.122-.641-.007-1.088.344-1.339.351-.251.811-.216 1.378.107l9.676 5.166 9.739-5.031c.732-.362 1.251-.33 1.563.106zm-4.771 12.9l1.64-9.071-8.195 4.221-8.126-4.338 1.483 9.092-6.64 6.394 9.117 1.374 4.009 8.315 4.142-8.249 9.127-1.245-6.557-6.493zm-630.204 229.702c-.044.187-.203.367-.478.534l-5.727 3.438-.413 6.669-.05.261c-.101.426-.325.598-.677.515-.163-.038-.321-.127-.476-.274l-5.04-4.387-6.471 1.663c-.212.06-.395.068-.548.032-.179-.042-.3-.134-.36-.279-.06-.148-.069-.308-.027-.488l.087-.252 2.617-6.148-3.592-5.643c-.159-.278-.217-.509-.175-.689.075-.318.36-.456.858-.421l6.655.588 4.264-5.15c.246-.313.497-.439.753-.379.256.061.424.286.503.676l1.504 6.515 6.213 2.457c.462.193.655.444.58.762zm-7.837 2.978l4.823-2.882-5.222-2.073-1.264-5.471-3.581 4.324-5.597-.488 3.022 4.738-2.213 5.173 5.448-1.403 4.229 3.693.355-5.611zm228.974 61.331c.17.132.279.377.323.735l.842 7.434 6.605 3.52.243.172c.387.301.458.609.21.929-.115.148-.279.268-.501.357l-6.813 3.098-1.313 7.368c-.037.244-.114.434-.222.574-.127.163-.276.243-.452.238-.179-.008-.346-.073-.51-.199l-.216-.206-5.049-5.524-7.42 1.038c-.358.033-.62-.015-.783-.142-.289-.224-.297-.579-.03-1.07l3.692-6.51-3.267-6.739c-.205-.396-.217-.71-.036-.943s.488-.299.923-.199l7.339 1.494 5.391-5.19c.41-.379.755-.459 1.044-.235zm-.607 9.371l-.695-6.255-4.539 4.359-6.163-1.254 2.743 5.66-3.098 5.478 6.233-.878 4.244 4.659 1.102-6.205 5.729-2.594-5.556-2.97z"/></svg>